<?xml version="1.0" standalone="no"?>
<!DOCTYPE svg PUBLIC "-//W3C//DTD SVG 20010904//EN"
 "http://www.w3.org/TR/2001/REC-SVG-20010904/DTD/svg10.dtd">
<svg version="1.0" xmlns="http://www.w3.org/2000/svg"
 width="505.000000pt" height="505.000000pt" viewBox="0 0 505.000000 505.000000"
 preserveAspectRatio="xMidYMid meet">
<metadata>
Created by potrace 1.14, written by Peter Selinger 2001-2017
</metadata>
<g transform="translate(0.000000,505.000000) scale(0.100000,-0.100000)"
fill="#000000" stroke="none">
<path d="M2070 5038 c0 -5 -6 -8 -13 -8 -29 0 -97 -61 -117 -104 -37 -82 -21
-165 42 -227 37 -36 45 -41 64 -38 4 0 10 -4 14 -11 5 -9 61 -16 157 -20 17 0
15 -250 -1 -255 -6 -2 -31 -6 -56 -9 -46 -5 -153 -25 -215 -41 -11 -3 -41 -10
-67 -17 -27 -6 -48 -15 -48 -20 0 -5 -4 -7 -9 -4 -8 5 -51 -5 -96 -24 -11 -4
-49 -19 -85 -33 -36 -14 -94 -38 -130 -55 -36 -16 -69 -29 -74 -30 -5 0 -12
-4 -15 -9 -3 -5 -32 -22 -63 -38 -32 -16 -58 -33 -58 -38 0 -4 -4 -5 -10 -2
-5 3 -10 1 -10 -4 0 -6 -5 -11 -11 -11 -14 0 -172 -110 -182 -127 -4 -7 -13
-13 -19 -13 -23 0 -236 -197 -230 -213 1 -5 -2 -6 -7 -3 -12 8 -197 -206 -190
-218 2 -3 -6 -13 -18 -21 -13 -9 -23 -21 -23 -26 0 -5 -9 -19 -20 -31 -11 -12
-20 -28 -20 -35 0 -7 -4 -13 -8 -13 -9 0 -29 -36 -30 -53 0 -5 -9 -15 -19 -23
-10 -7 -13 -14 -8 -14 6 0 6 -3 -1 -8 -6 -4 -25 -36 -43 -72 -19 -36 -41 -81
-51 -100 -10 -19 -20 -44 -22 -55 -1 -11 -6 -22 -9 -25 -9 -8 -65 -175 -87
-260 -18 -68 -26 -109 -38 -180 -2 -14 -6 -35 -9 -47 -24 -104 -25 -469 -3
-582 5 -25 11 -59 12 -76 2 -16 11 -61 21 -100 9 -38 18 -79 21 -91 7 -35 50
-167 74 -224 12 -30 28 -67 34 -82 6 -16 15 -28 19 -28 5 0 6 -4 2 -9 -3 -5 1
-15 8 -23 15 -14 17 -20 17 -44 0 -8 4 -13 8 -10 4 2 9 -5 9 -16 1 -12 8 -25
15 -29 7 -5 13 -12 13 -16 1 -15 87 -153 96 -153 5 0 9 -5 9 -12 0 -14 89
-134 138 -185 12 -13 22 -28 22 -33 0 -6 8 -10 17 -10 9 0 13 -3 10 -6 -9 -9
213 -225 224 -218 5 3 9 -1 9 -8 0 -7 24 -29 52 -48 28 -19 56 -39 62 -45 31
-29 106 -75 122 -75 9 0 14 -3 11 -6 -8 -8 76 -54 98 -54 8 0 15 -6 15 -13 0
-7 37 -30 83 -51 45 -22 100 -47 121 -57 22 -11 43 -19 47 -19 3 0 24 -8 45
-17 22 -9 48 -18 58 -20 11 -2 25 -8 33 -14 7 -6 13 -9 13 -5 0 3 12 1 28 -5
15 -6 34 -12 42 -14 8 -2 31 -9 50 -15 37 -11 264 -57 290 -58 8 -1 44 -5 80
-10 83 -12 436 -12 515 -1 33 5 82 11 109 14 28 3 52 8 55 13 3 4 16 7 29 6
23 -1 76 11 197 45 39 10 90 25 115 32 25 7 48 16 51 21 3 5 18 11 32 14 29 5
58 17 97 39 14 8 34 15 44 15 11 0 27 6 35 14 9 7 36 23 61 36 120 59 151 78
235 133 50 32 93 64 97 70 4 7 8 8 8 3 0 -5 8 1 19 12 10 12 22 22 25 22 4 0
13 6 20 12 7 7 37 33 66 58 72 60 199 191 205 211 3 9 15 19 26 22 12 3 18 10
15 15 -3 6 1 13 10 16 8 3 12 11 9 17 -4 6 2 13 13 16 18 4 30 18 29 33 0 3
14 21 31 40 18 19 32 40 32 46 0 7 4 14 9 16 12 4 113 168 104 168 -5 0 -3 4
3 8 21 13 148 294 158 349 3 12 10 31 16 42 6 12 8 21 5 21 -3 0 1 16 9 35 8
19 13 35 11 35 -2 0 1 15 6 33 13 42 21 77 23 102 1 11 4 25 7 30 4 6 7 24 8
40 0 17 3 44 6 60 22 127 22 406 0 535 -2 14 -7 47 -10 75 -4 27 -10 57 -15
66 -5 9 -7 19 -3 22 3 4 -2 24 -10 45 -9 22 -14 42 -11 44 2 3 -3 21 -11 41
-8 21 -13 37 -10 37 3 0 1 9 -5 21 -6 11 -13 30 -15 42 -3 12 -9 31 -14 42 -5
11 -19 47 -32 80 -12 33 -26 62 -29 65 -4 3 -12 20 -18 39 -7 19 -24 55 -39
80 -15 25 -28 48 -28 51 0 3 -15 30 -33 60 -48 81 -56 94 -62 100 -3 3 -11 17
-19 32 -8 15 -18 25 -23 22 -4 -3 -8 1 -8 8 0 7 -22 41 -50 75 -27 34 -50 67
-50 73 0 12 70 84 133 137 l37 32 24 -24 c27 -27 83 -41 123 -30 15 3 41 22
59 40 27 29 32 41 29 77 -3 56 -9 68 -49 98 -19 14 -32 28 -30 32 2 3 0 8 -5
10 -5 1 -71 62 -146 133 -75 72 -143 134 -152 138 -27 16 -73 26 -78 17 -3 -4
-13 -6 -23 -4 -22 6 -79 -46 -88 -80 -10 -42 4 -88 40 -128 18 -21 36 -34 40
-31 3 3 6 2 6 -3 0 -11 -29 -43 -113 -123 -48 -47 -58 -52 -71 -40 -23 21 -35
30 -101 79 -33 25 -61 48 -63 53 -2 4 -10 7 -18 7 -8 0 -14 5 -14 10 0 6 -7
10 -15 10 -8 0 -15 5 -15 10 0 6 -7 10 -15 10 -8 0 -15 5 -15 10 0 6 -7 10
-15 10 -8 0 -15 5 -15 11 0 6 -7 9 -15 5 -8 -3 -15 -2 -15 2 0 9 -78 58 -87
54 -3 -2 -9 1 -12 7 -4 6 -16 12 -26 14 -11 1 -31 10 -45 19 -27 18 -130 66
-170 78 -14 5 -48 17 -77 28 -28 11 -54 17 -57 14 -3 -3 -6 0 -6 6 0 6 -8 11
-17 11 -10 0 -58 11 -108 25 -49 14 -110 29 -135 32 -25 3 -49 8 -53 11 -5 3
-30 7 -55 10 -26 2 -53 5 -59 5 -9 1 -13 23 -14 72 -2 116 0 179 5 184 3 2 31
6 63 7 109 5 160 30 212 105 35 49 36 151 1 201 -39 55 -71 79 -130 96 -27 8
-890 8 -890 1z m336 -1087 c1 -75 3 -86 24 -103 33 -27 135 -28 175 -2 19 13
22 23 22 99 0 47 3 88 5 91 5 4 128 -10 278 -32 36 -5 174 -41 228 -60 26 -9
52 -17 57 -18 6 -1 20 -8 33 -14 12 -7 22 -10 22 -7 0 3 10 0 23 -7 12 -6 28
-13 36 -14 8 -2 17 -8 21 -14 4 -7 10 -11 14 -10 8 2 69 -21 76 -30 3 -3 19
-11 35 -19 39 -17 209 -123 213 -133 2 -4 9 -8 15 -8 7 0 18 -9 25 -21 7 -12
16 -19 19 -16 3 3 21 -9 40 -26 l35 -32 -31 -27 c-17 -15 -31 -31 -31 -35 0
-5 -13 -17 -29 -28 -32 -21 -46 -52 -31 -70 6 -7 8 -14 5 -17 -8 -8 91 -91
111 -94 20 -3 71 32 122 84 18 19 38 32 46 29 33 -13 196 -230 257 -343 17
-32 39 -67 47 -76 8 -10 12 -18 7 -18 -4 0 0 -11 9 -25 9 -14 14 -25 11 -25
-3 0 6 -17 19 -38 13 -22 27 -52 30 -68 3 -16 17 -67 31 -114 15 -47 28 -95
31 -107 2 -13 6 -34 9 -48 17 -83 26 -146 29 -202 l3 -43 -88 0 c-120 0 -133
-11 -132 -110 1 -90 5 -93 128 -100 l90 -5 -1 -40 c-2 -56 -23 -201 -38 -260
-10 -40 -44 -151 -56 -180 -6 -16 -11 -31 -11 -32 1 -10 -28 -76 -62 -146 -22
-45 -41 -84 -41 -87 -1 -3 -11 -20 -24 -38 -13 -17 -21 -32 -17 -32 3 0 -3
-10 -15 -22 -11 -12 -20 -26 -20 -30 0 -5 -4 -14 -10 -21 -5 -7 -36 -46 -67
-87 -31 -41 -71 -90 -88 -108 l-31 -33 -63 58 c-35 32 -73 61 -84 66 -23 8
-53 -8 -102 -57 -59 -60 -55 -77 38 -167 l52 -50 -40 -35 c-89 -80 -417 -273
-463 -274 -7 0 -10 -5 -6 -12 4 -6 3 -8 -3 -5 -5 3 -40 -6 -79 -20 -77 -28
-185 -61 -226 -68 -15 -3 -37 -9 -50 -14 -13 -4 -32 -7 -42 -5 -11 1 -27 -1
-36 -6 -9 -5 -49 -11 -90 -15 -41 -3 -90 -8 -107 -11 -23 -4 -33 -1 -34 8 0 7
-1 50 -2 95 -2 102 -12 112 -108 113 -99 0 -110 -12 -111 -122 -2 -92 -7 -101
-49 -93 -12 3 -54 7 -92 10 -39 3 -74 8 -78 10 -4 3 -26 7 -49 10 -24 3 -47 8
-52 11 -5 3 -25 8 -44 10 -61 8 -274 83 -384 135 -58 28 -107 51 -110 52 -3 0
-9 5 -15 9 -30 25 -84 56 -89 51 -3 -3 -8 2 -12 11 -3 9 -10 13 -15 10 -5 -3
-9 0 -9 5 0 6 -7 11 -15 11 -8 0 -15 3 -15 8 0 4 -18 18 -40 32 -22 14 -40 28
-40 32 0 5 -4 8 -10 8 -5 0 -21 12 -36 27 -23 23 -24 27 -10 35 9 5 13 14 10
20 -4 6 -3 8 2 5 6 -3 31 16 58 43 63 63 61 88 -12 152 -29 25 -61 45 -70 43
-9 -2 -20 -4 -23 -4 -3 -1 -34 -27 -69 -60 -36 -32 -69 -57 -75 -54 -5 2 -28
27 -50 54 -22 27 -48 60 -58 72 -10 12 -26 34 -35 49 -9 16 -20 28 -24 28 -4
0 -8 7 -8 15 0 8 -4 15 -10 15 -5 0 -10 6 -10 14 0 8 -3 16 -7 18 -11 4 -136
239 -139 258 0 3 -7 21 -15 40 -9 19 -28 76 -43 125 -16 50 -32 99 -36 110 -5
11 -11 40 -14 65 -3 25 -7 55 -10 66 -2 12 -8 58 -12 103 l-7 81 92 0 c120 0
131 9 132 105 2 95 -11 105 -133 105 l-90 0 7 78 c9 103 28 199 60 302 14 47
27 92 29 100 11 36 55 139 79 183 15 26 24 47 20 47 -3 0 1 8 9 18 19 22 73
117 67 117 -2 0 8 14 24 30 15 16 27 35 27 42 0 6 3 13 8 15 4 2 23 24 43 50
51 68 107 128 119 128 5 0 15 -9 22 -20 7 -11 17 -20 21 -20 5 0 20 -13 34
-30 13 -16 31 -30 39 -30 8 0 14 -5 14 -10 0 -24 53 -1 98 41 70 66 69 91 -8
160 -33 30 -60 58 -60 62 0 11 17 27 60 57 19 13 43 32 52 43 9 10 18 17 20
15 2 -1 28 14 58 33 89 57 109 69 116 68 4 0 10 3 13 8 7 11 136 73 151 73 6
0 10 5 10 10 0 6 3 9 8 8 6 -3 78 21 127 42 45 19 178 55 285 77 49 10 225 31
245 30 18 -2 20 -10 21 -86z"/>
<path d="M1255 2880 c-116 -29 -189 -123 -188 -242 1 -74 26 -132 78 -176 68
-59 183 -78 271 -44 52 19 117 69 109 82 -3 5 3 11 13 15 13 5 0 15 -53 43
l-69 37 -27 -27 c-38 -38 -95 -39 -133 -2 -21 22 -26 36 -26 76 0 42 5 54 30
80 27 27 36 30 72 25 26 -4 47 -14 60 -30 l20 -25 64 37 c35 20 64 38 64 41 0
6 -50 59 -72 75 -42 33 -149 50 -213 35z"/>
<path d="M1755 2881 c-129 -35 -207 -132 -200 -251 3 -67 24 -111 73 -158 48
-44 93 -63 170 -69 172 -14 308 123 279 281 -13 77 -57 135 -128 171 -52 28
-142 39 -194 26z m131 -156 c27 -26 43 -85 32 -115 -23 -62 -102 -93 -155 -59
-69 42 -61 158 12 190 29 13 92 4 111 -16z"/>
<path d="M3685 2880 c-67 -15 -129 -59 -166 -117 -55 -87 -36 -215 44 -292 76
-75 237 -91 352 -35 l60 29 0 105 0 105 -117 3 -118 3 0 -46 c0 -25 3 -45 8
-46 4 -1 21 -2 37 -4 17 -1 33 -3 37 -4 8 -1 3 -35 -8 -52 -12 -21 -103 -4
-131 23 -34 35 -43 107 -17 145 10 16 18 31 16 35 -1 4 4 5 12 2 8 -3 17 -1
21 5 10 17 77 13 117 -8 l37 -18 44 52 c45 51 45 52 24 65 -77 48 -175 68
-252 50z"/>
<path d="M2132 2870 c-4 -3 -7 -106 -6 -230 l0 -225 80 -2 80 -1 -1 108 c-1
74 2 107 9 104 6 -3 31 -36 56 -74 32 -50 48 -66 56 -59 7 6 31 39 54 75 23
35 45 64 49 64 3 0 6 -48 6 -107 l0 -108 79 0 80 0 -1 215 c-1 118 -2 222 -2
231 -1 13 -14 15 -78 13 -43 -1 -81 -2 -84 -3 -3 -1 -27 -35 -53 -76 -26 -41
-52 -75 -57 -75 -4 0 -15 13 -24 29 -8 16 -20 35 -27 43 -7 7 -21 29 -31 48
l-19 35 -80 0 c-44 0 -82 -2 -86 -5z"/>
<path d="M2736 2870 c-2 -3 -3 -107 -3 -231 l0 -227 79 0 78 0 0 39 c3 219 1
412 -5 417 -7 8 -145 10 -149 2z"/>
<path d="M2958 2875 c0 0 -2 -104 -3 -232 l-2 -231 79 -1 c44 0 78 4 79 9 0 6
1 53 2 105 0 52 3 95 6 94 5 0 156 -176 171 -198 3 -4 38 -8 78 -9 l72 -1 -2
232 -3 232 -76 0 -76 0 1 -88 c1 -79 -6 -121 -17 -107 -19 26 -109 132 -134
160 -30 33 -35 34 -102 35 -39 0 -72 1 -73 0z"/>
<path d="M2020 2315 c-96 -25 -175 -81 -218 -155 -15 -25 -28 -48 -28 -52 -1
-5 -2 -9 -4 -10 -4 -6 -11 -44 -14 -77 -5 -60 26 -181 46 -181 5 0 8 -6 8 -14
0 -21 77 -86 135 -112 97 -45 191 -50 289 -15 92 32 154 86 198 171 34 66 33
197 -2 265 -74 145 -249 221 -410 180z m175 -205 c71 -66 63 -187 -14 -233
-69 -41 -168 -11 -196 58 -15 36 -14 117 1 132 8 8 14 21 14 29 0 8 4 12 10 9
5 -3 15 3 21 13 10 16 23 19 75 18 52 -1 67 -5 89 -26z"/>
<path d="M2785 2315 c-77 -19 -116 -39 -166 -87 -221 -209 -69 -547 246 -550
161 -2 307 100 345 240 64 241 -169 459 -425 397z m168 -209 c51 -46 59 -76
44 -156 -9 -46 -67 -89 -122 -92 -108 -4 -168 93 -130 210 4 12 11 22 16 22 5
0 9 7 9 16 0 8 5 12 10 9 6 -3 13 0 15 8 4 9 24 14 65 14 53 1 63 -2 93 -31z"/>
<path d="M1300 2305 c-95 -27 -154 -90 -165 -174 -7 -56 21 -117 69 -149 34
-23 123 -55 181 -65 71 -13 95 -20 107 -34 10 -12 9 -18 -7 -29 -36 -27 -144
-10 -233 35 -24 12 -45 21 -46 19 -1 -2 -25 -30 -53 -64 l-52 -60 21 -19 c25
-21 113 -62 148 -69 14 -3 45 -9 70 -13 47 -10 148 -8 190 2 14 4 25 6 25 4 0
-1 18 7 41 19 79 40 126 112 118 183 -1 13 -3 32 -3 41 -2 27 -50 77 -100 102
-40 20 -132 46 -182 51 -36 3 -80 28 -77 44 7 38 109 27 230 -23 12 -6 29 9
68 60 l51 68 -38 23 c-89 54 -259 76 -363 48z"/>
<path d="M3308 2310 l-23 -6 0 -304 0 -305 105 0 105 0 0 132 c0 72 2 134 5
137 3 3 57 -57 120 -134 l115 -139 98 0 97 -1 0 310 0 310 -22 1 c-53 2 -182
-2 -186 -6 -3 -3 -5 -61 -5 -130 0 -69 -4 -125 -8 -125 -3 0 -24 21 -45 47
-22 26 -46 55 -54 63 -8 9 -28 33 -45 54 -77 99 -73 96 -157 99 -43 1 -88 0
-100 -3z"/>
</g>
</svg>
